<?xml version="1.0" encoding="UTF-8"?>
<svg version="1.1" viewBox="0 0 1152 1152" width="1152" height="1152" xmlns="http://www.w3.org/2000/svg">
<path transform="translate(414,73)" d="m0 0h25l22 2 29 5 26 7 27 10 22 10 23 13 16 10 16 12 14 12 10 9 12 11 9 9 7 8 29 29 14 10 15 8 13 4 5 1h31l12-7 8-9 7-12 5-16 2-23-2-20-7-31v-14l4-7 7-6 7-2h7l7 4 7 9 13 21 17 28 13 22 16 29 18 36 13 28 20 41 5 8 2-3 7-26 16-73 9-36 19-70 4-20 5-8 5-4 2-1h11l6 5 3 6 1 4v9l-5 25-15 63-21 92-11 44-11 39v9l7 17 17 39 13 30 19 42 14 30 15 33 17 37 15 33 18 39 6 16 2 9v12l-3 10-5 6-6 3h-9l-6-4-5-8-7-19-10-26-15-37-16-38-19-43-11-24-34-74-13-28-2-1-4 16-28 94-26 86-15 48-10 31-18 56-12 39-17 57-22 75-10 31-10 30-7 12-9 8-12 6-4 1h-12l-7-3-5-5-3-9v-8l4-17 9-25 15-40 22-57 16-41 15-40 18-50 15-44 14-41 25-75 14-46 12-43 16-61 12-41-1-5-13-25-12-22-23-45-16-32-13-28-10-21-10-19-8-14v32l-3 20-5 18-7 16-8 12-9 10-8 7-12 7-14 5-12 2h-21l-24-3-22-5-13-5-11-7-6-7-8-14-10-18-12-18-8-10-9-10-13-13-17-13-17-11-17-9-27-11-26-8-23-5-24-3-14-1h-23l-16 2-16 5-14 7-10 8-9 12-7 14-5 17-4 27-2 25-2 65-3 18-6 18-9 17-11 14-9 9-14 10-16 9-23 11-26 11-33 15-18 11-13 12-8 9-9 15-7 16-4 17-1 8v28l4 25 14 58 6 30 2 14v21l-3 9-6 7-10 6-17 8-5 5-3 7 1 7 3 3 6 1 2-6 5-6 2-1h12l12 4 15 8 21 12 19 9 25 10 30 10 37 9 31 6 48 7 20 5 14 6 11 8 11 11 11 18 7 19 3 14 1 9v18l-3 18-5 17-11 25-13 25-10 18-7 14-6 15-7 11-9 8-10 5-9-1-15-5h-10l-13 4-22 9-15 3h-25l-30-4-25-6-20-7-20-9-18-10-17-12-14-12-12-11-13-14-8-10-13-18-9-15-11-20-12-29-5-15-6-24-3-21v-17l3-10 7-9 26-13 7-6 7-11 7-16 6-23 3-24v-36l-3-27-7-38-8-37-3-23v-28l3-20 6-20 8-18 10-16 5-10 8-10 15-15 11-9 14-10 25-15 21-11 29-13 16-7 15-9 10-8 9-10 10-16 7-16 8-32 5-26 7-51 5-34 5-20 5-13 6-11 10-13 10-9 18-10 17-5 18-3zm-283 700-8 9-11 19-12 21-8 16-5 16-2 16 2 21 5 19 8 18 7 12 10 13 12 13 7 7 14 11 15 10 21 11 21 8 17 5 22 4 10 1h33l21-3 22-6 19-7 21-11 14-10 12-11 10-11 6-11 5-12 3-14v-25l-3-14-4-10-6-10-5-6-13-9-11-4-22-4-47-7-29-6-30-8-31-11-26-11-19-9-18-10-14-8-5-2z" fill="#040404"/>
<path transform="translate(598,301)" d="m0 0h41l34 4 10 3 10 5 24 7 16 7 15 8 12 9 14 12 9 10 11 16 8 16 7 21 7 36 4 28 2 27v17l-2 24-4 17-7 19-9 17-12 17-9 11-17 17-14 10-15 9-23 10-16 6-39 11-27 5-21 2h-44l-26-2-29-4-40-9-18-5-12-6-10-9-8-14-8-18-11-30-16-43-14-37-7-23-5-22-2-14v-19l4-20 8-17 6-10 4-8 9-10 9-8 10-7 18-12 15-8 16-8 27-12 31-10 30-8 21-4zm1 46-30 3-31 6-29 8-28 10-22 10-18 11-14 12-12 12-11 15-7 14-5 16-2 14v24l3 20 6 20 8 19 13 25 11 18 9 11 9 10 14 11 16 9 21 8 25 7 27 5 31 3h24l22-2 25-5 30-10 23-10 18-10 13-9 11-10 9-13 6-13 5-15 4-22 1-13v-28l-2-24-4-24-6-21-7-16-7-14-10-14-9-10-9-9-10-7-11-6-14-6-22-6-20-3-13-1z" fill="#040404"/>
<path transform="translate(746,684)" d="m0 0h11l6 3 5 6 2 9-1 14-6 21-8 23-13 30-8 16-14 27-10 17-20 30-14 19-11 13-9 11-14 15-15 16-17 16-10 9-11 9-15 12-33 22-15 9-32 17-23 10-29 11-15 4h-12l-7-3-6-7-1-3v-13l3-10 7-13 12-19 13-21 15-26 13-24 11-24 10-30 4-17 2-16v-11l-2-19-5-22-11-40-4-22-1-16 3-7 2-1h8l25 7 21 4 22 3 12 1h45l25-3 23-5 27-8 29-11 25-10zm-37 52-43 13-24 6-26 4-32 2h-62l-7 4-2 4v12l7 34 2 17v22l-3 25-6 27-10 33-10 31-3 15 2 7 1 1h10l16-8 22-13 21-14 17-12 12-9 10-8 11-9 15-14 8-7 7-8 12-13 8-10 10-13 12-17 11-18 12-23 9-20 6-17 2-8v-10l-3-5-1-1z" fill="#040404"/>
<path transform="translate(265,504)" d="m0 0h19l13 4 10 6 11 9 11 11 8 13 5 13 1 4v18l-4 15-6 15-8 13-8 10-14 14-2 5 18 11 10 8 9 10 6 12 1 4v13l-3 10-6 8-9 8-12 6-3 1h-15l-13-5-26-13-14-5-5-1h-13l-16 6-16 1-14-3-4-4v-8l7-15v-3l-16-5-9-6-6-10-3-16v-16l3-20 5-17 9-21 10-16 10-13 15-16 8-7 13-10 16-9 15-6zm6 8-17 4-16 7-11 6-11 8-11 10-6 5-9 11-8 10-9 15-5 10v2h2l7-11 13-17 11-12 13-13 13-10 16-9 11-5 15-4h16l8 3 7 6 3 8v11l-4 16-9 19-10 14-9 11-16 16-3 1 7-10 5-13 3-16 2-15 3-6 12-8 8-9 4-13-1-6-4-4-8-2-12 1-15 5-17 9-13 10-5 6-1 3-2 27-3 17-4 9-8 11-4 7v11l3 6 4 3 8 2-4 3-14 6-8 2h-16l-10-4-4-2-1 2 4 9 8 5 5 1h10l17-4 21-9 16-9 17-12 13-11 16-16 11-15 9-15 6-15 3-14v-16l-4-10-7-7-10-5-4-1zm7 169-12 6-7 7-1 3 5 5 33 17 20 12h7l6-5 3-8-2-11-6-8-8-7-12-7-13-4z" fill="#060606"/>
<path transform="translate(910,615)" d="m0 0 2 2-18 58-10 31-18 56-12 39-17 57-22 75-10 31-10 30-7 12-9 8-12 6-4 1h-12l-7-3-5-5-3-9v-8l4-17 9-25 15-40 22-57 3-6 3-1 5 1 7 6 4 1h11l1-4 6 1 3-5 2-6h2l3-14 3-1 3-12 6-21 3-8 4-14 3-7 5-17 8-28 8-24 9-30 4-10 4-11 2-2-1-2 4-9 4-3v-8l1-3 3-1z" fill="#2D6C95"/>
<path transform="translate(1e3 499)" d="m0 0h2l1 5h2l1 3 3 5 6 2 2 1h7l6-3v-3l3-2-2-1 1-5h5l17 36 9 20 12 26 15 33 16 35 14 31 5 15 1 5v12l-3 10-5 6-6 3h-9l-6-4-5-8-7-19-10-26-15-37-16-38-19-43-11-24-15-33z" fill="#25425C"/>
<path transform="translate(414,73)" d="m0 0h25l22 2 29 5 26 7 27 10 22 10 23 13 16 10 16 12 14 12 10 9 12 11 9 9 7 8 29 29 14 10 15 8 13 4 5 1 29 1-2 2-16 4h-12l-16-3-12-5-13-7-13-10-13-12-29-29-8-7-10-9-17-13-15-11-22-14-18-10-25-12-28-10-23-6-26-4-11-1h-35l-18 3-20 6-15 8-10 8-7 6-9 12-8 16-5 15-5 25-7 48-5 32-6 27-8 22-9 17-9 12-10 10-13 9-23 12-34 15-26 12-20 11-14 10-11 9-7 6-7 8-8 9-4 4 2-6 9-12 16-16 11-9 14-10 25-15 21-11 29-13 16-7 15-9 10-8 9-10 10-16 7-16 8-32 5-26 7-51 5-34 5-20 5-13 6-11 10-13 10-9 18-10 17-5 18-3z" fill="#F6E8B9"/>
<path transform="translate(910,615)" d="m0 0 2 2-18 58-10 31-18 56-5 15-2-2-2 6-2 5-8 25-6 22-5 15-8 28-7 24-6 18-5 6-3 1-2 3-3-1v-5l-19 1-1 2-12-3-5 2h-3l-2 10h-1v-7l15-39 14-36 4-2 5 1 7 6 4 1h11l1-4 6 1 3-5 2-6h2l3-14 3-1 3-12 6-21 3-8 4-14 3-7 5-17 8-28 8-24 9-30 4-10 4-11 2-2-1-2 4-9 4-3v-8l1-3 3-1z" fill="#23415C"/>
<path transform="translate(915,588)" d="m0 0h1v9l1 4-5 15-2 3-2 2-2-1 1 3h-2l1 6v3l-5 3-3 8 1 2-2 4-4 9-6 16-5 18-8 24-7 23-5 17-5 16-4 11-3 12-4 10-3 12-3 10-3 3-3 12-1 2h-2l-2 7-3 5-5-1-2 4h-12l-7-4-1-3-9-1-1-2 13-33 15-40 4 2 2 2 1-3h15l1-3-1-3 5-2 4 4 4-1v-6l3-6 5-9 2-14 4-5 2-10 2-7-1-5-1-1v-5l5-3 7-11 1-12 4-7 2-7h2l-1-3 5-12 5-15 6-15 8-24z" fill="#232529"/>
<path transform="translate(391,77)" d="m0 0h8l-1 2 10 1-1 4-3 1 1 3-21 5-13 5-11 6-10 8-7 6-9 12-8 16-5 15-5 25-7 48-5 32-6 27-8 22-9 17-9 12-10 10-13 9-23 12-34 15-26 12-20 11-14 10-11 9-7 6-7 8-8 9-4 4 2-6 9-12 16-16 11-9 14-10 25-15 21-11 29-13 16-7 15-9 10-8 9-10 10-16 7-16 8-32 5-26 7-51 5-34 5-20 5-13 6-11 10-13 10-9 12-7 6 1 1-3 9-3h8v-2z" fill="#9F9A8F"/>
<path transform="translate(1066,636)" d="m0 0 3 1 1 3h8l10 2 2-1 2-5 5 1 7 11 3 7 5 5 10 22 5 15 1 5v12l-3 10-5 6-6 3h-9l-6-4-5-8-7-19-10-26-13-32v-6z" fill="#2D6C95"/>
<path transform="translate(598,301)" d="m0 0h41l34 4 10 3 7 4v1l-12-1-21-2-17-1h-23l-30 2-27 4-28 6-28 8-26 9-23 10-17 8-22 13-13 9-10 8-10 9-7 7-1-2 4-8 9-10 9-8 10-7 18-12 15-8 16-8 27-12 31-10 30-8 21-4z" fill="#F2E6BB"/>
<path transform="translate(1e3 499)" d="m0 0h2l1 5h2l1 3 3 5 6 2 2 1h7l6-3v-3l3-2-2-1 1-5h5l17 36 5 13-3 3v-4l-2 1-4-1-1 10-7 2h-5l-1-4-6-4-3 2v-3h-2l1-4-4-1-3-3-12-25-8-19z" fill="#23252A"/>
<path transform="translate(815,916)" d="m0 0 1 4-5 15h-2l-2 4-1 6h-3l-1 4-7 2-7 1h-21l-3-2-1-4-3-2-4 8h-5l2-9 5-13h2l2-6 3-1 2-2h4l6 2 5 1 4-2h16l1 5h2l9-9z" fill="#2A6085"/>
<path transform="translate(1066,636)" d="m0 0 3 1 1 3h8l10 2 2-1 2-5 5 1 7 11 3 7 5 5 5 11-1 2-3-1-1-2-2 2-4-1h-3l-7 2h-13l-4-2v-3l-4 2-11-26v-6z" fill="#2A5F85"/>
<path transform="translate(1027,81)" d="m0 0h11l6 5 3 6 1 4v9l-2 11-4 2-4 3h-10l-9-5-6-7 1-11 4-10 7-6z" fill="#F9EBBB"/>
<path transform="translate(258,347)" d="m0 0 2 1-5 4-1 5v3l-16 9-23 11-30 13-27 13-18 11-13 10-10 9-14 14-7 9-1-2 6-10 11-12 10-10 11-9 14-10 25-15 21-11 29-13 16-7 15-9z" fill="#E2D7B0"/>
<path transform="translate(910,615)" d="m0 0 2 2-18 58-10 31-18 56-5 15-2-2-2 6-2 5-1 2h-2l1-7 5-14 5-17 8-28 8-24 9-30 4-10 4-11 2-2-1-2 4-9 4-3v-8l1-3 3-1z" fill="#28445E"/>
<path transform="translate(822,96)" d="m0 0h7l7 4 7 9v3l-18 10-9 7-6 8-2 2-2-6-2-8v-14l4-7 7-6z" fill="#9C988E"/>
<path transform="translate(207,376)" d="m0 0 5 1-1 2-6 3-9 3-7 4-4 4-27 13-18 11-13 10-10 9-14 14-7 9-1-2 6-10 11-12 10-10 11-9 14-10 18-11 9-3 15-7 9-4z" fill="#E4D9B6"/>
<path transform="translate(1041,99)" d="m0 0 2 4 1 3 3-4v10l-2 4-7 5h-10l-1-5-5-2-1-3h-2l-1-5h2v-2h2v-2l8-2h10z" fill="#99958C"/>
<path transform="translate(915,588)" d="m0 0h1v9l1 4-5 15-2 3-2 2-2-1 1 3h-2l1 6v3l-5 3-3 8 1 2-2 4-4 9-6 16-4 15-2 1v-12l4-7 2-7h2l-1-3 5-12 5-15 6-15 8-24z" fill="#23252A"/>
<path transform="translate(881,690)" d="m0 0 1 2-8 24-7 23-5 17-4 14-3 1v-8l4-11 2-7 1-8 4-5 2-10 2-7-1-5-1-1v-5l5-3 7-10z" fill="#202226"/>
<path transform="translate(822,96)" d="m0 0h7l7 4 7 9v3l-11 6-4-1v-2l6-2 3-3-1-3-1-2-2 1-2-5h-9l-3 1v2l-6 2-2 5-3 3-3 11h-1v-14l4-7 7-6z" fill="#F8EBBA"/>
<path transform="translate(823,793)" d="m0 0 6 3 3 4 2 3-2 2v6l-1 2h-11l-4-4v-2l-2-1h2v-2l-2-1h2v-5z" fill="#020202"/>
<path transform="translate(858,773)" d="m0 0 3 4-3 12-11 35-7 24h-1l-1-10 7-22 6-21 4-11 1-5z" fill="#346586"/>
<path transform="translate(258,347)" d="m0 0 2 1-5 4-1 5v3l-16 9-5 2-4-2 1-4 3-3 14-7z" fill="#E5D9B1"/>
<path transform="translate(658,304)" d="m0 0h8l15 3 9 5v1l-12-1-21-2-4-2 5-3z" fill="#EFEFED"/>
<path transform="translate(423,79)" d="m0 0h10l8 2-2 1 1 4-32 1-2-2 3-1 12-1v-2h2z" fill="#99958C"/>
<path transform="translate(207,376)" d="m0 0 5 1-1 2-6 3-9 3-8 4-24 11-2-1 3-4 9-3 15-7 9-4z" fill="#98948C"/>
<path transform="translate(910,615)" d="m0 0 2 2-8 26-1 2h-2l-1 2-3-4 4-9 4-3v-8l1-3 3-1z" fill="#263C51"/>
<path transform="translate(207,374)" d="m0 0m-3 1h3l-1 3-8 4-11 5-17 8-3-1 18-10z" fill="#FBEDBC"/>
<path transform="translate(158,399)" d="m0 0h3l-1 3-20 12-7 5-2-1 10-8z" fill="#A5A092"/>
<path transform="translate(188,388)" d="m0 0m-3 1h3l-1 3-19 9-4-1 8-5z" fill="#ECDFB4"/>
<path transform="translate(395,75)" d="m0 0h5l-1 2-8 1v2l-8 1-7 1-7 2-1 2-4-2 13-5z" fill="#F3E5B8"/>
<path transform="translate(817,776)" d="m0 0 4 2 1 5-5 5-1 3h-3l1-7z" fill="#161617"/>
<path transform="translate(163,396)" d="m0 0 2 1-2 2 3 3-18 10v-3l5-4 7-4v-3z" fill="#E4D8B0"/>
<path transform="translate(207,380)" d="m0 0h2l-1 3-19 8v-3l11-6z" fill="#E6DAB1"/>
<path transform="translate(207,376)" d="m0 0 5 1-1 2-6 3-9 3-4 1 2-3 12-6z" fill="#96928B"/>
<path transform="translate(865,756)" d="m0 0 2 3-5 16-2-1 2-13z" fill="#366484"/>
<path transform="translate(263,343)" d="m0 0v3l-3 2 2-4zm-4 5m-1 1 4 2-2 1-2 5-4 2-1-5z" fill="#C0B89F"/>
<path transform="translate(838,108)" d="m0 0 5 2v2l-11 6-4-1v-2l6-2z" fill="#D7CDAB"/>
<path transform="translate(910,615)" d="m0 0 2 2-5 16-2-4v-6l1-3 3-1z" fill="#334555"/>
<path transform="translate(847,789)" d="m0 0 2 1-1 4-2 5-3-1-3-5z" fill="#020202"/>
<path transform="translate(158,399)" d="m0 0h3l-1 3-10 6-2-1 5-5z" fill="#ADA796"/>
<path transform="translate(1103,645)" d="m0 0h2l5 10-1 3-3-2-3-8z" fill="#314D64"/>
<path transform="translate(993,483)" d="m0 0h4l1 6 1 5h2l1 4-2 1z" fill="#3A3B3C"/>
<path transform="translate(844,799)" d="m0 0 1 2-3 7-3-1 1-6z" fill="#020202"/>
<path transform="translate(811,792)" d="m0 0h5l-2 7-3 1-1-5z" fill="#0C0C0D"/>
<path transform="translate(868,743)" d="m0 0h2l1 3-3 10-2-1v-6z" fill="#346586"/>
<path transform="translate(812,128)" d="m0 0 2 1-2 5-4 5-1-4z" fill="#DACFAC"/>
<path transform="translate(1036,501)" d="m0 0h3l4 9-4-1-3-5z" fill="#333436"/>
<path transform="translate(1e3 499)" d="m0 0h2l1 5h2l-1 6-2-2-3-8z" fill="#303134"/>
<path transform="translate(250,626)" d="m0 0" fill="#96928B"/>
</svg>
